# xmcd
#
# Track frame offsets:
#	182
#	16475
#	40120
#	59262
#	75260
#	96995
#	113412
#	132342
#	145652
#	158487
#	177110
#	195482
#	211082
#	227545
#	242402
#	258422
#	280650
#
# Disc length: 3933 seconds
#
# Revision: 1
# Processed by: cddbd v1.4PL0 Copyright (c) Steve Scherf et al.
# Submitted via: audiograbber 1.82.01
#
DISCID=cb0f5b11
DTITLE=Zz Hill - The Best Of Zz Hill
DYEAR=1986
DGENRE=R&B
TTITLE0=Cheating In The Next Room
TTITLE1=Down Home Blues
TTITLE2=Please Don't Let Our Good Thing End
TTITLE3=Right Arm For Your Love
TTITLE4=Open House At My House
TTITLE5=Someone Else Is Stepping In
TTITLE6=Get A Little Give A Little
TTITLE7=Shade Tree Mechanic
TTITLE8=Three Into Two Won't Go
TTITLE9=Stop You From Giving Me The Blues
TTITLE10=Friday Is My Day
TTITLE11=Bump and Grind
TTITLE12=When It Rains It Pours
TTITLE13=Givin It Up For Your Love
TTITLE14=I'm A Blues Man
TTITLE15=Everybody Knows About My Good Thing
TTITLE16=Get You Some Business
EXTD=
EXTT0=
EXTT1=
EXTT2=
EXTT3=
EXTT4=
EXTT5=
EXTT6=
EXTT7=
EXTT8=
EXTT9=
EXTT10=
EXTT11=
EXTT12=
EXTT13=
EXTT14=
EXTT15=
EXTT16=
PLAYORDER=
